<?xml version="1.0" encoding="utf-8"?>
<!-- Generator: Adobe Illustrator 23.0.3, SVG Export Plug-In . SVG Version: 6.00 Build 0)  -->
<svg version="1.1" id="Layer_1" xmlns="http://www.w3.org/2000/svg" xmlns:xlink="http://www.w3.org/1999/xlink" x="0px" y="0px"
	 viewBox="0 0 772 772" style="enable-background:new 0 0 772 772;" xml:space="preserve">
<style type="text/css">
	.st0{fill:#3E0000;stroke:#3E0000;stroke-miterlimit:10;}
	.st1{fill:none;}
	.st2{fill:#38312D;}
	.st3{fill:#FFCCAA;}
	.st4{fill:#E2DDD9;}
	.st5{fill:#3E0000;}
</style>
<title>WatchArtboard 3 copy 10</title>
<g id="ARM2">
	<path class="st0" d="M409.5,177v218.6h-48V154.3c0-6.9,5.6-12.5,12.5-12.5h0.1c6.9,0,12.5,5.6,12.5,12.5v7.2h7.4
		C402.5,161.5,409.5,168.5,409.5,177z"/>
	<path class="st1" d="M368.3,388.9v234.6c-0.1,3.2,2.3,5.9,5.5,6c3.2,0.1,5.9-2.3,6-5.5c0-0.2,0-0.3,0-0.5v-13.9H394
		c4.8,0,8.8-3.9,8.8-8.8l0,0V388.9H368.3z"/>
	<rect x="368.3" y="193.2" class="st2" width="34.5" height="195.7"/>
	<path class="st3" d="M402.7,178.6v14.6h-34.5v-38.9c0-3.2,2.6-5.8,5.8-5.8c3.2,0,5.8,2.6,5.8,5.8c0,0,0,0,0,0v13.9h12.6
		C398.1,168.2,402.7,172.9,402.7,178.6z"/>
	<path class="st3" d="M402.7,177v1.6c0-5.7-4.6-10.4-10.4-10.4h1.6C398.8,168.2,402.7,172.2,402.7,177z"/>
	<rect x="368.3" y="184.4" class="st4" width="34.5" height="8.8"/>
	<path class="st5" d="M403.7,183.4h-36.5v10.8h36.5L403.7,183.4L403.7,183.4z M402.7,193.2h-34.5v-8.8h34.5V193.2z"/>
</g>
</svg>
