<?xml version="1.0" encoding="utf-8"?>
<!-- Generator: Adobe Illustrator 23.0.3, SVG Export Plug-In . SVG Version: 6.00 Build 0)  -->
<svg version="1.1" id="Layer_1" xmlns="http://www.w3.org/2000/svg" xmlns:xlink="http://www.w3.org/1999/xlink" x="0px" y="0px"
	 viewBox="0 0 772 772" style="enable-background:new 0 0 772 772;" xml:space="preserve">
<style type="text/css">
	.st0{fill:#3E0000;}
	.st1{fill:#38312D;}
	.st2{fill:#FFCCAA;}
	.st3{fill:#E2DDD9;}
	.st4{fill:none;}
</style>
<title>WatchArtboard 3 copy 9</title>
<g id="ARM1">
	<path class="st0" d="M409.5,184.3v211.3h-48V207c0-8.6,7-15.5,15.5-15.5h7.4v-7.2c0-6.9,5.6-12.5,12.5-12.5h0
		C403.9,171.8,409.5,177.4,409.5,184.3z"/>
	<path class="st1" d="M378.6,198.2h13.7c5.7,0,10.4,4.6,10.4,10.4v180.3h-34.5V208.6C368.3,202.9,372.9,198.2,378.6,198.2
		L378.6,198.2z"/>
	<path class="st2" d="M402.7,184.3v38.9h-34.5V207c0-4.9,3.9-8.8,8.8-8.8h14.1v-13.9c0-3.2,2.6-5.8,5.8-5.8S402.7,181.1,402.7,184.3
		C402.7,184.3,402.7,184.3,402.7,184.3L402.7,184.3z"/>
	<rect x="368.3" y="214.4" class="st3" width="34.5" height="8.8"/>
	<path class="st0" d="M403.7,213.4h-36.5v10.8h36.5L403.7,213.4L403.7,213.4z M402.7,223.2h-34.5v-8.8h34.5V223.2z"/>
	<path class="st4" d="M402.7,388.9v204.6c0.1,3.2-2.3,5.9-5.5,6c-3.2,0.1-5.9-2.3-6-5.5c0-0.2,0-0.3,0-0.5v-13.9H377
		c-4.8,0-8.8-3.9-8.8-8.8l0,0V388.9H402.7z"/>
</g>
</svg>
