<?xml version="1.0" encoding="utf-8"?>
<!-- Generator: Adobe Illustrator 23.0.3, SVG Export Plug-In . SVG Version: 6.00 Build 0)  -->
<svg version="1.1" id="Layer_1" xmlns="http://www.w3.org/2000/svg" xmlns:xlink="http://www.w3.org/1999/xlink" x="0px" y="0px"
	 viewBox="0 0 771 771" style="enable-background:new 0 0 771 771;" xml:space="preserve">
<style type="text/css">
	.st0{fill:#FFFFFF;}
	.st1{fill:#3E0000;}
	.st2{fill:none;stroke:#3E0000;stroke-width:7;stroke-linecap:round;stroke-linejoin:round;}
	.st3{fill:none;stroke:#3E0000;stroke-width:5;stroke-linecap:round;stroke-linejoin:round;}
	.st4{opacity:3.000000e-02;fill:none;stroke:#3E0000;stroke-width:5;stroke-miterlimit:10;enable-background:new    ;}
</style>
<title>WatchArtboard 3 copy 3</title>
<g id="clock">
	<circle class="st0" cx="385.4" cy="385.4" r="385.4"/>
	<path class="st0" d="M385.4,741.9C188.5,741.7,29,581.9,29.2,385c0.1-143,85.7-272.2,217.5-328C428.8-17.9,637.1,69.1,712,251.2
		c73.8,179.6-9.7,385.3-187.8,462.6C480.3,732.4,433.1,742,385.4,741.9z"/>
	<path class="st1" d="M385.4,32.7c194.8,0,352.7,157.9,352.7,352.7S580.2,738.1,385.4,738.1S32.7,580.2,32.7,385.4
		S190.6,32.7,385.4,32.7 M385.4,12.4c-206.1,0.1-373,167.3-372.9,373.3c0.1,149.8,89.8,285.1,227.7,343.4
		c189.8,80.2,408.7-8.7,488.9-198.5s-8.7-408.7-198.5-488.9l0,0C484.7,22.2,435.3,12.3,385.4,12.4z"/>
</g>
<line class="st2" x1="385.4" y1="74.7" x2="385.4" y2="110.7"/>
<line class="st2" x1="230.1" y1="116.3" x2="248.1" y2="147.5"/>
<line class="st2" x1="116.3" y1="230.1" x2="147.5" y2="248.1"/>
<line class="st2" x1="74.7" y1="385.4" x2="110.7" y2="385.4"/>
<line class="st2" x1="116.3" y1="540.8" x2="147.5" y2="522.8"/>
<line class="st2" x1="230.1" y1="654.5" x2="248.1" y2="623.3"/>
<line class="st2" x1="385.4" y1="696.1" x2="385.4" y2="660.1"/>
<line class="st2" x1="540.8" y1="654.5" x2="522.8" y2="623.3"/>
<line class="st2" x1="654.5" y1="540.8" x2="623.3" y2="522.8"/>
<line class="st2" x1="696.1" y1="385.4" x2="660.1" y2="385.4"/>
<line class="st2" x1="654.5" y1="230.1" x2="623.3" y2="248.1"/>
<line class="st2" x1="540.8" y1="116.3" x2="522.8" y2="147.5"/>
<g id="clock_tick_minutes">
	<line class="st3" x1="352.9" y1="76.4" x2="354.6" y2="92.1"/>
	<line class="st3" x1="320.8" y1="81.5" x2="324.1" y2="97"/>
	<line class="st3" x1="289.4" y1="89.9" x2="294.3" y2="105"/>
	<line class="st3" x1="259" y1="101.6" x2="265.5" y2="116"/>
	<line class="st3" x1="202.8" y1="134.1" x2="212.1" y2="146.8"/>
	<line class="st3" x1="177.5" y1="154.5" x2="188.1" y2="166.3"/>
	<line class="st3" x1="154.5" y1="177.5" x2="166.3" y2="188.1"/>
	<line class="st3" x1="134.1" y1="202.8" x2="146.8" y2="212.1"/>
	<line class="st3" x1="101.6" y1="259" x2="116" y2="265.5"/>
	<line class="st3" x1="89.9" y1="289.4" x2="105" y2="294.3"/>
	<line class="st3" x1="81.5" y1="320.8" x2="97" y2="324.1"/>
	<line class="st3" x1="76.4" y1="352.9" x2="92.1" y2="354.6"/>
	<line class="st3" x1="76.4" y1="417.9" x2="92.1" y2="416.2"/>
	<line class="st3" x1="81.5" y1="450" x2="97" y2="446.7"/>
	<line class="st3" x1="89.9" y1="481.4" x2="105" y2="476.5"/>
	<line class="st3" x1="101.6" y1="511.8" x2="116" y2="505.3"/>
	<line class="st3" x1="134.1" y1="568" x2="146.8" y2="558.7"/>
	<line class="st3" x1="154.5" y1="593.3" x2="166.3" y2="582.7"/>
	<line class="st3" x1="177.5" y1="616.3" x2="188.1" y2="604.5"/>
	<line class="st3" x1="202.8" y1="636.8" x2="212.1" y2="624"/>
	<line class="st3" x1="259" y1="669.2" x2="265.5" y2="654.8"/>
	<line class="st3" x1="289.4" y1="680.9" x2="294.3" y2="665.9"/>
	<line class="st3" x1="320.8" y1="689.3" x2="324.1" y2="673.8"/>
	<line class="st3" x1="352.9" y1="694.4" x2="354.6" y2="678.7"/>
	<line class="st3" x1="417.9" y1="694.4" x2="416.2" y2="678.7"/>
	<line class="st3" x1="450" y1="689.3" x2="446.7" y2="673.8"/>
	<line class="st3" x1="481.4" y1="680.9" x2="476.5" y2="665.9"/>
	<line class="st3" x1="511.8" y1="669.2" x2="505.3" y2="654.8"/>
	<line class="st3" x1="568" y1="636.8" x2="558.7" y2="624"/>
	<line class="st3" x1="593.3" y1="616.3" x2="582.7" y2="604.5"/>
	<line class="st3" x1="616.3" y1="593.3" x2="604.5" y2="582.7"/>
	<line class="st3" x1="636.8" y1="568" x2="624" y2="558.7"/>
	<line class="st3" x1="669.2" y1="511.8" x2="654.8" y2="505.3"/>
	<line class="st3" x1="680.9" y1="481.4" x2="665.9" y2="476.5"/>
	<line class="st3" x1="689.3" y1="450" x2="673.8" y2="446.7"/>
	<line class="st3" x1="694.4" y1="417.9" x2="678.7" y2="416.2"/>
	<line class="st3" x1="694.4" y1="352.9" x2="678.7" y2="354.6"/>
	<line class="st3" x1="689.3" y1="320.8" x2="673.8" y2="324.1"/>
	<line class="st3" x1="680.9" y1="289.4" x2="665.9" y2="294.3"/>
	<line class="st3" x1="669.2" y1="259" x2="654.8" y2="265.5"/>
	<line class="st3" x1="636.8" y1="202.8" x2="624" y2="212.1"/>
	<line class="st3" x1="616.3" y1="177.5" x2="604.5" y2="188.1"/>
	<line class="st3" x1="593.3" y1="154.5" x2="582.7" y2="166.3"/>
	<line class="st3" x1="568" y1="134.1" x2="558.7" y2="146.8"/>
	<line class="st3" x1="511.8" y1="101.6" x2="505.3" y2="116"/>
	<line class="st3" x1="481.4" y1="89.9" x2="476.5" y2="105"/>
	<line class="st3" x1="450" y1="81.5" x2="446.7" y2="97"/>
	<line class="st3" x1="417.9" y1="76.4" x2="416.2" y2="92.1"/>
</g>
<g>
	<path class="st1" d="M378.6,43.2h4v17.2h-4V49.5l-1.2,1.5l-3.1-2.5L378.6,43.2z"/>
	<path class="st1" d="M396.4,56.5v4h-11.5v-4.3c1.1-0.7,2.2-1.4,3.1-2.1c0.9-0.7,1.7-1.4,2.4-2c0.7-0.6,1.2-1.2,1.5-1.8
		s0.5-1,0.5-1.3c0-0.5-0.2-0.9-0.5-1.3c-0.3-0.3-0.8-0.5-1.3-0.5s-0.9,0.2-1.3,0.5c-0.3,0.3-0.5,0.8-0.5,1.3h-4
		c0-0.8,0.2-1.5,0.5-2.2s0.7-1.3,1.2-1.8s1.1-0.9,1.8-1.2c0.7-0.3,1.4-0.5,2.2-0.5c0.8,0,1.5,0.2,2.2,0.5s1.3,0.7,1.8,1.2
		s0.9,1.1,1.2,1.8c0.3,0.7,0.5,1.4,0.5,2.2c0,2.3-1.7,4.7-5.1,7.5C391.1,56.5,396.4,56.5,396.4,56.5z"/>
</g>
<g>
	<path class="st1" d="M214.7,87.9h4v17.2h-4V94.2l-1.2,1.5l-3.1-2.5L214.7,87.9z"/>
	<path class="st1" d="M225.2,87.9h4v17.2h-4V94.2l-1.2,1.5l-3.1-2.5L225.2,87.9z"/>
</g>
<g>
	<path class="st1" d="M92.1,210.8h4V228h-4v-10.9l-1.2,1.5l-3.1-2.5L92.1,210.8z"/>
	<path class="st1" d="M104.1,210.9c0.9,0,1.8,0.2,2.7,0.7c0.8,0.5,1.6,1.1,2.2,1.8c0.6,0.8,1.1,1.7,1.5,2.7s0.5,2.2,0.5,3.3
		c0,1.2-0.2,2.3-0.5,3.3c-0.4,1-0.9,2-1.5,2.7c-0.6,0.8-1.4,1.4-2.2,1.8s-1.7,0.7-2.7,0.7s-1.8-0.2-2.7-0.7
		c-0.8-0.5-1.6-1.1-2.2-1.8s-1.1-1.7-1.5-2.7s-0.5-2.2-0.5-3.3c0-1.2,0.2-2.3,0.5-3.3c0.4-1,0.9-2,1.5-2.7s1.3-1.4,2.2-1.8
		C102.3,211.1,103.2,210.9,104.1,210.9z M104.1,224.1c0.5,0,1-0.1,1.4-0.4c0.4-0.2,0.8-0.6,1.2-1c0.3-0.4,0.6-0.9,0.8-1.5
		c0.2-0.6,0.3-1.2,0.3-1.8s-0.1-1.2-0.3-1.8c-0.2-0.6-0.5-1.1-0.8-1.5s-0.7-0.8-1.2-1s-0.9-0.4-1.4-0.4s-1,0.1-1.4,0.4
		s-0.8,0.6-1.2,1c-0.3,0.4-0.6,0.9-0.8,1.5c-0.2,0.6-0.3,1.2-0.3,1.8s0.1,1.2,0.3,1.8c0.2,0.6,0.5,1.1,0.8,1.5s0.7,0.8,1.2,1
		C103.1,224,103.6,224.1,104.1,224.1z"/>
</g>
<g>
	<path class="st1" d="M51.6,387.8c-0.8-0.1-1.5-0.3-2.2-0.6c-0.7-0.4-1.3-0.8-1.8-1.3s-0.9-1.2-1.2-1.9s-0.4-1.5-0.4-2.3
		c0-0.9,0.2-1.7,0.5-2.4s0.8-1.4,1.3-2c0.6-0.6,1.2-1,2-1.3s1.6-0.5,2.4-0.5c0.9,0,1.7,0.2,2.4,0.5s1.4,0.8,2,1.3
		c0.6,0.6,1,1.2,1.3,2s0.5,1.6,0.5,2.4c0,0.9-0.2,1.8-0.6,2.7l-4.2,8.3h-4.4L51.6,387.8z M52.2,379.4c-0.3,0-0.6,0.1-0.9,0.2
		c-0.3,0.1-0.5,0.3-0.7,0.5s-0.4,0.5-0.5,0.7c-0.1,0.3-0.2,0.6-0.2,0.9s0.1,0.6,0.2,0.9c0.1,0.3,0.3,0.5,0.5,0.7s0.5,0.4,0.7,0.5
		c0.3,0.1,0.6,0.2,0.9,0.2c0.6,0,1.2-0.2,1.6-0.7s0.7-1,0.7-1.6c0-0.3-0.1-0.6-0.2-0.9c-0.1-0.3-0.3-0.5-0.5-0.7s-0.4-0.4-0.7-0.5
		S52.5,379.4,52.2,379.4z"/>
</g>
<g>
	<path class="st1" d="M100.9,549.4c0.5,0.5,1,1.1,1.3,1.8s0.5,1.5,0.5,2.2c0,0.8-0.2,1.5-0.5,2.2s-0.7,1.3-1.2,1.8s-1.1,0.9-1.8,1.2
		c-0.7,0.3-1.4,0.5-2.2,0.5s-1.5-0.2-2.2-0.5s-1.3-0.7-1.8-1.2s-0.9-1.1-1.2-1.8c-0.3-0.7-0.5-1.5-0.5-2.2c0-0.8,0.2-1.5,0.5-2.2
		s0.7-1.3,1.3-1.8c-0.2-0.4-0.4-0.8-0.5-1.2s-0.2-0.9-0.2-1.3c0-0.7,0.1-1.3,0.4-1.9s0.6-1.1,1-1.5s0.9-0.8,1.5-1s1.2-0.4,1.9-0.4
		c0.7,0,1.3,0.1,1.9,0.4c0.6,0.3,1.1,0.6,1.5,1s0.8,0.9,1,1.5s0.4,1.2,0.4,1.9c0,0.5-0.1,0.9-0.2,1.3
		C101.3,548.6,101.1,549,100.9,549.4z M96.9,555.3c0.5,0,0.9-0.2,1.3-0.5c0.4-0.4,0.5-0.8,0.5-1.3s-0.2-0.9-0.5-1.3
		c-0.4-0.4-0.8-0.5-1.3-0.5s-0.9,0.2-1.3,0.5c-0.4,0.4-0.5,0.8-0.5,1.3s0.2,0.9,0.5,1.3C95.9,555.1,96.4,555.3,96.9,555.3z
		 M96.9,546c-0.2,0-0.4,0.1-0.6,0.2s-0.2,0.4-0.2,0.6c0,0.2,0.1,0.4,0.2,0.6c0.2,0.2,0.4,0.2,0.6,0.2s0.4-0.1,0.6-0.2
		c0.2-0.2,0.2-0.4,0.2-0.6c0-0.2-0.1-0.4-0.2-0.6C97.3,546.1,97.1,546,96.9,546z"/>
</g>
<g>
	<path class="st1" d="M213.5,681.2l5.4-13.2h-6.1v-4h12l-7.1,17.2H213.5z"/>
</g>
<g>
	<path class="st1" d="M386,714.4c0.8,0.1,1.5,0.3,2.2,0.6s1.3,0.8,1.8,1.3s0.9,1.2,1.2,1.9c0.3,0.7,0.4,1.5,0.4,2.3
		c0,0.9-0.2,1.7-0.5,2.4c-0.3,0.8-0.8,1.4-1.3,2s-1.2,1-2,1.3c-0.7,0.3-1.6,0.5-2.4,0.5c-0.9,0-1.7-0.2-2.4-0.5
		c-0.8-0.3-1.4-0.8-2-1.3c-0.6-0.6-1-1.2-1.3-2s-0.5-1.6-0.5-2.4c0-0.9,0.2-1.8,0.6-2.7l4.2-8.3h4.4L386,714.4z M385.4,722.8
		c0.6,0,1.2-0.2,1.6-0.7c0.4-0.4,0.7-1,0.7-1.6c0-0.3-0.1-0.6-0.2-0.9c-0.1-0.3-0.3-0.5-0.5-0.7s-0.4-0.4-0.7-0.5s-0.6-0.2-0.9-0.2
		s-0.6,0.1-0.9,0.2s-0.5,0.3-0.7,0.5s-0.4,0.5-0.5,0.7c-0.1,0.3-0.2,0.6-0.2,0.9c0,0.3,0.1,0.6,0.2,0.9c0.1,0.3,0.3,0.5,0.5,0.7
		s0.5,0.4,0.7,0.5C384.8,722.7,385.1,722.8,385.4,722.8z"/>
</g>
<g>
	<path class="st1" d="M552,681.2c-0.8,0-1.5-0.2-2.2-0.5s-1.3-0.7-1.8-1.2s-0.9-1.1-1.2-1.8s-0.5-1.5-0.5-2.2h4
		c0,0.5,0.2,0.9,0.5,1.3c0.4,0.4,0.8,0.5,1.3,0.5s0.9-0.2,1.3-0.5c0.3-0.4,0.5-0.8,0.5-1.3s-0.2-0.9-0.5-1.2s-0.8-0.5-1.3-0.5h-5.8
		V664H557v4h-6.8v1.9h1.8c0.8,0,1.5,0.1,2.2,0.4c0.7,0.3,1.3,0.7,1.8,1.2s0.9,1.1,1.2,1.8s0.5,1.4,0.5,2.2s-0.2,1.5-0.5,2.2
		s-0.7,1.3-1.2,1.8s-1.1,0.9-1.8,1.2C553.6,681,552.8,681.2,552,681.2z"/>
</g>
<g>
	<path class="st1" d="M675.5,542h4v17.2h-4v-3h-6.9v-4L675.5,542z M673.3,552.2h2.1v-3.1L673.3,552.2z"/>
</g>
<g>
	<path class="st1" d="M721.1,381.8c0.5,0.2,0.9,0.5,1.3,0.9c0.4,0.4,0.7,0.7,1,1.2c0.3,0.4,0.5,0.9,0.7,1.4s0.2,1.1,0.2,1.6
		c0,0.8-0.2,1.5-0.5,2.2s-0.7,1.3-1.2,1.8s-1.1,0.9-1.8,1.2c-0.7,0.3-1.4,0.5-2.2,0.5s-1.5-0.2-2.2-0.5s-1.3-0.7-1.8-1.2
		s-0.9-1.1-1.2-1.8c-0.3-0.7-0.5-1.5-0.5-2.2h4c0,0.5,0.2,0.9,0.5,1.3c0.4,0.4,0.8,0.5,1.3,0.5s0.9-0.2,1.3-0.5
		c0.3-0.4,0.5-0.8,0.5-1.3s-0.2-0.9-0.5-1.2c-0.3-0.3-0.8-0.5-1.3-0.5H716v-3.9l1.9-1.9h-4.7v-4h10.9v3.3L721.1,381.8z"/>
</g>
<g>
	<path class="st1" d="M679.7,222.1v4h-11.5v-4.3c1.1-0.7,2.2-1.4,3.1-2.1c0.9-0.7,1.7-1.4,2.4-2s1.2-1.2,1.5-1.8
		c0.4-0.5,0.5-1,0.5-1.3c0-0.5-0.2-0.9-0.5-1.3c-0.3-0.3-0.8-0.5-1.3-0.5s-0.9,0.2-1.3,0.5c-0.3,0.3-0.5,0.8-0.5,1.3h-4
		c0-0.8,0.2-1.5,0.5-2.2s0.7-1.3,1.2-1.8s1.1-0.9,1.8-1.2s1.4-0.5,2.2-0.5s1.5,0.2,2.2,0.5s1.3,0.7,1.8,1.2s0.9,1.1,1.2,1.8
		s0.5,1.4,0.5,2.2c0,2.3-1.7,4.7-5.1,7.5L679.7,222.1L679.7,222.1z"/>
</g>
<g>
	<path class="st1" d="M548.2,89.9h4v17.2h-4v-11l-1.2,1.5l-3.1-2.5L548.2,89.9z"/>
</g>
<circle class="st4" cx="385.4" cy="385.4" r="213.6"/>
<circle class="st4" cx="385.4" cy="385.4" r="243.6"/>
</svg>
