<?xml version="1.0" encoding="utf-8"?>
<!-- Generator: Adobe Illustrator 23.0.3, SVG Export Plug-In . SVG Version: 6.00 Build 0)  -->
<svg version="1.1" id="Layer_1" xmlns="http://www.w3.org/2000/svg" xmlns:xlink="http://www.w3.org/1999/xlink" x="0px" y="0px"
	 viewBox="0 0 771 771" style="enable-background:new 0 0 771 771;" xml:space="preserve">
<style type="text/css">
	.st0{fill:none;stroke:#3E0000;stroke-width:13.51;stroke-linecap:round;stroke-miterlimit:10;}
	.st1{fill:#38312D;}
	.st2{fill:#22201D;stroke:#400000;stroke-width:1.35;stroke-miterlimit:10;}
	.st3{fill:none;stroke:#400000;stroke-width:1.35;stroke-miterlimit:10;}
	.st4{fill:#22201D;}
	.st5{fill:#400000;}
</style>
<title>WatchArtboard 3 copy 4</title>
<g id="BODY">
	<path class="st0" d="M419.9,520.9L419.9,520.9l0.1-104.7h-68.9v85.1h-0.2V608c-2.8,5.4-4.3,11.5-4.2,17.6h78.4
		c0.1-6.8-1.7-13.5-5.2-19.4V520.9z M386.7,520.9V608c-0.3,0.5-0.5,1.1-0.8,1.6c-0.5-1.2-1.1-2.3-1.8-3.4v-85.4H386.7z"/>
	<rect x="385.5" y="501.3" class="st1" width="34.4" height="124.3"/>
	<rect x="350.9" y="501.3" class="st1" width="34.6" height="124.3"/>
	<rect x="351.1" y="416.2" class="st1" width="68.9" height="104.7"/>
	<path class="st2" d="M403.4,596.1c-7.5,0-14.1,5.4-17.9,13.6c-3.8-8.2-10.4-13.6-17.9-13.6c-11.8,0-21.3,13.2-21.3,29.6h78.4
		C424.7,609.3,415.2,596.1,403.4,596.1z"/>
	<line class="st3" x1="385.5" y1="516.5" x2="385.5" y2="609.7"/>
	<rect x="350.5" y="511.6" class="st4" width="69.9" height="9.8"/>
	<path class="st5" d="M420,512.2v8.8h-68.9v-8.8H420 M421,511.2h-71V522h71V511.2L421,511.2z"/>
</g>
</svg>
