<?xml version="1.0" encoding="utf-8"?>
<!-- Generator: Adobe Illustrator 23.0.3, SVG Export Plug-In . SVG Version: 6.00 Build 0)  -->
<svg version="1.1" id="Layer_1" xmlns="http://www.w3.org/2000/svg" xmlns:xlink="http://www.w3.org/1999/xlink" x="0px" y="0px"
	 viewBox="0 0 771.1 771.1" style="enable-background:new 0 0 771.1 771.1;" xml:space="preserve">
<style type="text/css">
	.st0{fill:#400000;}
	.st1{fill:#FFCCAA;}
	.st2{fill:#84222F;}
	.st3{fill:#A0606E;stroke:#400000;stroke-width:5.9922;stroke-miterlimit:10;}
</style>
<path class="st0" d="M510.9,378.6c-2.5-6.8-9-11.7-16.6-11.7h-23.8c-6.5,0-11.7,5.2-11.8,11.7h-7.6c-6.5,0-11.8,5.3-11.8,11.8
	c0,0.9,0.1,1.8,0.3,2.7c-2.4,2.2-3.8,5.3-3.8,8.7c0,4.8,2.9,8.9,7,10.8c0,0.3,0,0.5,0,0.8c0,6.5,5.3,11.7,11.7,11.7h133.5v-46.4
	H510.9z"/>
<path class="st1" d="M506,384.6c0-6.4-5.2-11.7-11.7-11.7h-23.8c-3.2,0-5.8,2.6-5.8,5.8c0,3.2,2.6,5.8,5.8,5.8h-19.5
	c-3.2,0-5.8,2.6-5.8,5.8l0,0c0,2.6,1.7,4.9,4.1,5.6h-1.8c-3.2,0-5.8,2.6-5.8,5.8c0,3.2,2.6,5.8,5.8,5.8h6.8c-3.2,0-5.7,2.6-5.7,5.7
	c0,3.1,2.6,5.7,5.7,5.7h21h8.9h97.7v-34.5H506V384.6z"/>
<g>
	<rect x="592.1" y="381.5" class="st0" width="176.2" height="40.5"/>
	<path class="st0" d="M765.5,384.6V419H594.8v-34.5H765.5 M771.1,378.5h-5.5H594.8h-5.5v6.1V419v6.1h5.5h170.7h5.5V419v-34.5V378.5
		L771.1,378.5z"/>
</g>
<title>WatchArtboard 3 copy 6</title>
<path class="st1" d="M451.1,384.6h38.8V419h-16.2c-4.9,0-8.8-3.9-8.8-8.8v-14.1h-13.9c-3.2,0-5.8-2.6-5.8-5.8
	C445.3,387.2,447.9,384.6,451.1,384.6L451.1,384.6L451.1,384.6z"/>
<rect x="591.8" y="384.6" class="st2" width="179.3" height="34.5"/>
<g>
	<path class="st0" d="M472.3,396.1h-29.1c-0.1,0-0.3-0.1-0.3-0.3c0-0.2,0.1-0.3,0.3-0.3h29.1c0.1,0,0.3,0.1,0.3,0.3
		C472.6,396,472.4,396.1,472.3,396.1z"/>
</g>
<g>
	<path class="st0" d="M472.3,407.8h-29.1c-0.1,0-0.3-0.1-0.3-0.3c0-0.2,0.1-0.3,0.3-0.3h29.1c0.1,0,0.3,0.1,0.3,0.3
		C472.6,407.7,472.4,407.8,472.3,407.8z"/>
</g>
<g>
	<path class="st0" d="M472.3,384.6h-27.1c-0.1,0-0.3-0.1-0.3-0.3c0-0.2,0.1-0.3,0.3-0.3h27.1c0.1,0,0.3,0.1,0.3,0.3
		C472.6,384.5,472.4,384.6,472.3,384.6z"/>
</g>
<rect x="581.9" y="378.6" class="st3" width="19.8" height="46.4"/>
</svg>
