<?xml version="1.0" encoding="utf-8"?>
<!-- Generator: Adobe Illustrator 23.0.3, SVG Export Plug-In . SVG Version: 6.00 Build 0)  -->
<svg version="1.1" id="Layer_1" xmlns="http://www.w3.org/2000/svg" xmlns:xlink="http://www.w3.org/1999/xlink" x="0px" y="0px"
	 viewBox="0 0 771 771" style="enable-background:new 0 0 771 771;" xml:space="preserve">
<style type="text/css">
	.st0{fill:none;stroke:#3E0000;stroke-width:11.49;stroke-linecap:round;stroke-miterlimit:10;}
	.st1{fill:#FFCCAA;}
	.st2{opacity:0.15;}
	.st3{fill:#3E0000;}
	.st4{fill:none;stroke:#3E0000;stroke-width:11.49;stroke-linecap:round;stroke-linejoin:round;}
	.st5{fill:#443333;}
	.st6{fill:none;stroke:#3E0000;stroke-width:11.49;stroke-linejoin:round;}
</style>
<title>WatchArtboard 3 copy 6</title>
<g id="HEAD">
	<path class="st0" d="M303.7,316.4h163.6c7,0,12.7,5.7,12.7,12.7l0,0c0,7-5.7,12.7-12.7,12.7H303.7c-7,0-12.7-5.7-12.7-12.7l0,0
		C291,322.1,296.7,316.4,303.7,316.4z"/>
	<path class="st1" d="M303.7,316.4h163.6c7,0,12.7,5.7,12.7,12.7l0,0c0,7-5.7,12.7-12.7,12.7H303.7c-7,0-12.7-5.7-12.7-12.7l0,0
		C291,322.1,296.7,316.4,303.7,316.4z"/>
	<g class="st2">
		<path class="st3" d="M304.7,319.6h161.7c5.2,0,9.5,4.2,9.5,9.5l0,0c0,5.2-4.2,9.5-9.5,9.5H304.7c-5.2,0-9.5-4.2-9.5-9.5l0,0
			C295.2,323.9,299.4,319.6,304.7,319.6z"/>
	</g>
	<g id="rect5667">
		<path class="st0" d="M343.6,259.7h83.8c20.9,0,37.9,16.4,37.9,36.5V377c0,20.2-17,36.5-37.9,36.5h-83.8
			c-20.9,0-37.9-16.4-37.9-36.5v-80.8C305.7,276.1,322.7,259.7,343.6,259.7z"/>
		<path class="st1" d="M343.6,259.7h83.8c20.9,0,37.9,16.4,37.9,36.5V377c0,20.2-17,36.5-37.9,36.5h-83.8
			c-20.9,0-37.9-16.4-37.9-36.5v-80.8C305.7,276.1,322.7,259.7,343.6,259.7z"/>
	</g>
	<g id="rect5675">
		<path class="st4" d="M401.6,232.6c-1.6,0-2.8,1.3-2.8,2.8l0,0V247h-89.6c-1.6,0-2.8,1.2-2.8,2.8l0,0v10c-0.3-0.1-0.5-0.1-0.8-0.1
			h-6c-1.6,0-2.8,1.3-2.8,2.8l0,0v39.8c0,1.6,1.3,2.8,2.8,2.8l0,0h6c1.6,0,2.8-1.3,2.8-2.8l0,0v-33.9c0.3,0.1,0.6,0.1,0.8,0.1h153.5
			v31.2c0,1.6,1.3,2.8,2.8,2.9l0,0h6c1.6,0,2.8-1.3,2.9-2.8l0,0v-64.4c0-1.6-1.3-2.8-2.8-2.9l0,0L401.6,232.6z"/>
		<path class="st5" d="M401.6,232.6c-1.6,0-2.8,1.3-2.8,2.8l0,0V247h-89.6c-1.6,0-2.8,1.2-2.8,2.8l0,0v10c-0.3-0.1-0.5-0.1-0.8-0.1
			h-6c-1.6,0-2.8,1.3-2.8,2.8l0,0v39.8c0,1.6,1.3,2.8,2.8,2.8l0,0h6c1.6,0,2.8-1.3,2.8-2.8l0,0v-33.9c0.3,0.1,0.6,0.1,0.8,0.1h153.5
			v31.2c0,1.6,1.3,2.8,2.8,2.9l0,0h6c1.6,0,2.8-1.3,2.9-2.8l0,0v-64.4c0-1.6-1.3-2.8-2.8-2.9l0,0L401.6,232.6z"/>
	</g>
</g>
<g id="MUSTACHE">
	<g id="path788">
		<path class="st6" d="M485.2,364c-0.5-5-0.9-11.8-2.3-11.9c-0.6,0.3-0.3,1.8-0.4,2.4s-1.3,7.6-3.2,9.4c-1.4,1.3-2.7,1.6-5.5,1.5
			c-4.5-0.3-10.5-2.9-25.3-11.2c-16.4-9.1-27.5-12.9-36.6-12.5c-4.1,0.1-8.2,1.3-11.7,3.5c-2.9,2-5.5,4.5-7.7,7.3
			c-3.1,4.3-6.2,10.7-6.7,14.2c-0.2,1.5-0.5,1.5-0.8,0c-0.4-3-2.7-8.2-5.3-12.3c-1.2-1.7-2.4-3.3-3.9-4.9
			c-5.5-5.8-10.8-7.9-19.6-7.8c-9.3,0-18.2,3.9-36.2,13.8c-7.8,4.3-15,7.9-18,8.9c-1.5,0.6-3.2,0.9-4.8,1c-2.9,0.2-4.1-0.1-5.6-1.4
			c-1.9-1.7-2.8-3.9-3.2-8.7c-0.1-1.1-0.2-2.2-0.4-3.3c-0.3-0.4-1.5,4.5-2,8.7c-2.5,18.5,3.1,32.3,16.4,40.1
			c5.9,3.3,12.4,5.3,19.1,5.9c5.1,0.3,10.1,0.3,15.2-0.1c24-2.6,44.5-15.6,48-30.5c0.6-2.8,0.7-2.8,1.1-0.8
			c0.9,4.4,3.6,9.1,7.4,13.3c7.9,8.4,21.2,14.8,36,17.3c11.6,2,23.6,1.2,32.4-2c3.1-1.2,6.1-2.6,8.9-4.4
			C481.7,392,486.7,379.7,485.2,364"/>
		<path class="st5" d="M485.2,364c-0.5-5-2.3-11.9-2.3-11.9s-0.4,1.6-0.4,2.4c-0.3,4.8-1.3,7.6-3.2,9.4c-1.4,1.3-2.7,1.6-5.5,1.5
			c-4.5-0.3-10.5-2.9-25.3-11.2c-16.4-9.1-27.5-12.9-36.6-12.5c-4.1,0.1-8.2,1.3-11.7,3.5c-2.9,2-5.5,4.5-7.7,7.3
			c-3.1,4.3-6.2,10.7-6.7,14.2c-0.2,1.5-0.5,1.5-0.8,0c-0.4-3-2.7-8.2-5.3-12.3c-1.2-1.7-2.4-3.3-3.9-4.9
			c-5.5-5.8-10.8-7.9-19.6-7.8c-9.3,0-18.2,3.9-36.2,13.8c-7.8,4.3-15,7.9-18,8.9c-1.5,0.6-3.2,0.9-4.8,1c-2.9,0.2-4.1-0.1-5.6-1.4
			c-1.9-1.7-2.8-3.9-3.2-8.7c-0.1-1.1-0.2-2.2-0.4-3.3c-0.3-0.4-1.5,4.5-2,8.7c-2.5,18.5,3.1,32.3,16.4,40.1
			c5.9,3.3,12.4,5.3,19.1,5.9c5.1,0.3,10.1,0.3,15.2-0.1c24-2.6,44.5-15.6,48-30.5c0.6-2.8,0.7-2.8,1.1-0.8
			c0.9,4.4,3.6,9.1,7.4,13.3c7.9,8.4,21.2,14.8,36,17.3c11.6,2,23.6,1.2,32.4-2c3.1-1.2,6.1-2.6,8.9-4.4
			C481.7,392,486.7,379.7,485.2,364"/>
	</g>
</g>
<g id="EYES">
	<path class="st3" d="M364.8,325c-0.6,1.6-0.3,1.4-5.4,4.5l-4.9,3l-3.9,2.4h-0.4c-8.4-0.3-15.1-7.3-14.8-15.7
		c0.2-8.1,6.8-14.7,15-14.8h0.2c0.9,0,1.7,0.1,2.5,0.2h0.2c0.7,0.1,1.5,0.3,2.2,0.6l0.2,0.1c5,1.9,8.7,6.2,9.8,11.5
		c0.3,1.9,0.3,3.9,0,5.8C365.3,323.3,365,324.2,364.8,325z"/>
	<path class="st3" d="M403.7,325c0.6,1.6,0.3,1.4,5.4,4.5l4.9,3l3.9,2.4h0.4c8.4-0.3,15.1-7.3,14.8-15.8c-0.3-8.1-6.8-14.7-15-14.8
		h-0.2c-0.9,0-1.7,0.1-2.6,0.2h-0.1c-0.7,0.1-1.5,0.3-2.2,0.6l-0.2,0.1c-5.1,1.9-8.7,6.3-9.7,11.6c-0.3,1.9-0.3,3.9,0,5.8
		C403.2,323.4,403.4,324.2,403.7,325z"/>
</g>
<g id="BROWS">
	<g id="rect5703">
		<path class="st4" d="M326.8,290.1l37.6-4.9c2-0.3,3.8,1.1,4,3.1l0.4,3c0.3,2-1.1,3.8-3.1,4l-37.6,4.9c-2,0.3-3.8-1.1-4-3.1l-0.4-3
			C323.5,292.2,324.9,290.4,326.8,290.1z"/>
		<path class="st5" d="M326.8,290.1l37.6-4.9c2-0.3,3.8,1.1,4,3.1l0.4,3c0.3,2-1.1,3.8-3.1,4l-37.6,4.9c-2,0.3-3.8-1.1-4-3.1l-0.4-3
			C323.5,292.2,324.9,290.4,326.8,290.1z"/>
	</g>
	<g id="rect5703-2">
		<path class="st4" d="M399.6,291l0.4-3c0.3-2,2.1-3.4,4-3.1l37.6,4.9c2,0.3,3.4,2.1,3.1,4l-0.4,3c-0.3,2-2.1,3.4-4,3.1l-37.6-4.9
			C400.7,294.8,399.3,293,399.6,291z"/>
		<path class="st5" d="M399.6,291l0.4-3c0.3-2,2.1-3.4,4-3.1l37.6,4.9c2,0.3,3.4,2.1,3.1,4l-0.4,3c-0.3,2-2.1,3.4-4,3.1l-37.6-4.9
			C400.7,294.8,399.3,293,399.6,291z"/>
	</g>
</g>
</svg>
