<?xml version="1.0" encoding="utf-8"?>
<!-- Generator: Adobe Illustrator 23.0.3, SVG Export Plug-In . SVG Version: 6.00 Build 0)  -->
<svg version="1.1" id="Layer_1" xmlns="http://www.w3.org/2000/svg" xmlns:xlink="http://www.w3.org/1999/xlink" x="0px" y="0px"
	 viewBox="0 0 772 772" style="enable-background:new 0 0 772 772;" xml:space="preserve">
<style type="text/css">
	.st0{fill:#22201D;}
	.st1{fill:#400000;}
	.st2{fill:#E2DDD9;}
	.st3{fill:#3E0000;}
</style>
<title>WatchArtboard 3 copy 7</title>
<g id="TIE">
	<g>
		<polygon class="st0" points="402.7,441 402.7,441.1 402.2,440.2 402.3,440.2 		"/>
	</g>
	<g>
		<polygon class="st0" points="402.7,441 402.7,441.1 402.2,440.2 402.3,440.2 		"/>
		<polygon class="st0" points="361.4,416.9 373.9,416.9 379.7,426.9 381.6,430.2 379.7,433.5 375.3,441.1 373.5,437.8 		"/>
		<polygon class="st0" points="397.1,416.9 397.1,416.9 373.9,416.9 373.9,416.9 		"/>
		<polygon class="st0" points="409.7,416.9 409.7,416.9 409.7,416.9 		"/>
		<path class="st0" d="M427.8,406.4l-84.6,0l9.1,15.8l9.5,16.4h10l-5,8.6l18.7,32.4l18.8-32.5l-5-8.6h10L427.8,406.4z M398.4,438.3
			l-1.9,3.3l-1.5,2.7l-8.6,15l-0.9,1.5l-0.9-1.5l-8.1-14l-2.1-3.6l-1.9-3.3l-12.1-20.9l-0.9-1.5h51.8l-0.9,1.5L398.4,438.3z"/>
		<path class="st1" d="M402.3,440.2L402.3,440.2l0.5,0.9l0,0L402.3,440.2z"/>
		<path class="st1" d="M433.7,403l-96.3,0l22.5,38.9h6l-3,5.3l22.6,39.2l22.7-39.3l-3-5.3h6L433.7,403z M399.3,438.5l5,8.6
			l-18.8,32.5l-18.7-32.4l5-8.6h-10l-9.5-16.4l-9.1-15.8l84.6,0l-18.6,32.1H399.3z M402.7,441L402.7,441l-0.5-0.8h0L402.7,441z"/>
	</g>
	<g>
		<polygon class="st2" points="361.4,416.9 373.9,416.9 379.7,426.9 381.6,430.2 379.7,433.5 375.3,441.1 375.3,441.1 373.5,437.8 
					"/>
		<polygon class="st2" points="397.1,416.9 397.1,416.9 373.9,416.9 373.9,416.9 		"/>
		<polygon class="st2" points="409.7,416.9 409.7,416.9 409.7,416.9 		"/>
	</g>
	<g>
		<path class="st1" d="M373.9,416.9L373.9,416.9l23.2,0l0,0H373.9z M411.4,415.9L411.4,415.9L411.4,415.9L411.4,415.9z"/>
	</g>
	<g>
		<path class="st1" d="M359.6,415.9l0.9,1.5l12.1,20.9l1.9,3.3l2.1,3.6l8.1,14l0.9,1.5l0.9-1.5l8.6-15l1.5-2.7l1.9-3.3l12.1-20.9
			l0.9-1.5H359.6z M409.7,416.9L409.7,416.9l-12.1,20.9l-1.9,3.3l-4.4-7.6l-1.9-3.3l1.9-3.3l5.8-10h-23.2l5.8,10l1.9,3.3l-1.9,3.3
			l-4.4,7.6v0l-1.9-3.3l-12.1-20.9h12.5l0,0h23.2l0,0H409.7L409.7,416.9L409.7,416.9z"/>
		<polygon class="st2" points="409.7,416.9 397.6,437.8 395.7,441.1 391.3,433.5 389.4,430.2 391.3,426.9 397.1,416.9 		"/>
	</g>
	<g>
		<polygon class="st3" points="397.1,416.9 397.1,416.9 373.9,416.9 373.9,416.9 		"/>
	</g>
</g>
</svg>
